solid plank
   facet normal 1.000000e+000 0.000000e+000 0.000000e+000
      outer loop
         vertex 2.000000e+002 1.000000e+001 0.000000e+000
         vertex 2.000000e+002 1.000000e+001 8.000000e+001
         vertex 2.000000e+002 0.000000e+000 0.000000e+000
      endloop
   endfacet
   facet normal 1.000000e+000 0.000000e+000 0.000000e+000
      outer loop
         vertex 2.000000e+002 0.000000e+000 0.000000e+000
         vertex 2.000000e+002 1.000000e+001 8.000000e+001
         vertex 2.000000e+002 0.000000e+000 8.000000e+001
      endloop
   endfacet
   facet normal 0.000000e+000 0.000000e+000 -1.000000e+000
      outer loop
         vertex 0.000000e+000 1.000000e+001 0.000000e+000
         vertex 2.000000e+002 1.000000e+001 0.000000e+000
         vertex 0.000000e+000 0.000000e+000 0.000000e+000
      endloop
   endfacet
   facet normal 0.000000e+000 0.000000e+000 -1.000000e+000
      outer loop
         vertex 0.000000e+000 0.000000e+000 0.000000e+000
         vertex 2.000000e+002 1.000000e+001 0.000000e+000
         vertex 2.000000e+002 0.000000e+000 0.000000e+000
      endloop
   endfacet
   facet normal -1.000000e+000 0.000000e+000 0.000000e+000
      outer loop
         vertex 0.000000e+000 1.000000e+001 8.000000e+001
         vertex 0.000000e+000 1.000000e+001 0.000000e+000
         vertex 0.000000e+000 0.000000e+000 8.000000e+001
      endloop
   endfacet
   facet normal -1.000000e+000 0.000000e+000 0.000000e+000
      outer loop
         vertex 0.000000e+000 0.000000e+000 8.000000e+001
         vertex 0.000000e+000 1.000000e+001 0.000000e+000
         vertex 0.000000e+000 0.000000e+000 0.000000e+000
      endloop
   endfacet
   facet normal 0.000000e+000 0.000000e+000 1.000000e+000
      outer loop
         vertex 2.000000e+002 1.000000e+001 8.000000e+001
         vertex 0.000000e+000 1.000000e+001 8.000000e+001
         vertex 2.000000e+002 0.000000e+000 8.000000e+001
      endloop
   endfacet
   facet normal 0.000000e+000 0.000000e+000 1.000000e+000
      outer loop
         vertex 2.000000e+002 0.000000e+000 8.000000e+001
         vertex 0.000000e+000 1.000000e+001 8.000000e+001
         vertex 0.000000e+000 0.000000e+000 8.000000e+001
      endloop
   endfacet
   facet normal 0.000000e+000 1.000000e+000 0.000000e+000
      outer loop
         vertex 0.000000e+000 1.000000e+001 0.000000e+000
         vertex 0.000000e+000 1.000000e+001 8.000000e+001
         vertex 2.000000e+002 1.000000e+001 0.000000e+000
      endloop
   endfacet
   facet normal 0.000000e+000 1.000000e+000 0.000000e+000
      outer loop
         vertex 2.000000e+002 1.000000e+001 0.000000e+000
         vertex 0.000000e+000 1.000000e+001 8.000000e+001
         vertex 2.000000e+002 1.000000e+001 8.000000e+001
      endloop
   endfacet
   facet normal 0.000000e+000 -1.000000e+000 0.000000e+000
      outer loop
         vertex 0.000000e+000 0.000000e+000 8.000000e+001
         vertex 0.000000e+000 0.000000e+000 0.000000e+000
         vertex 2.000000e+002 0.000000e+000 8.000000e+001
      endloop
   endfacet
   facet normal 0.000000e+000 -1.000000e+000 0.000000e+000
      outer loop
         vertex 2.000000e+002 0.000000e+000 8.000000e+001
         vertex 0.000000e+000 0.000000e+000 0.000000e+000
         vertex 2.000000e+002 0.000000e+000 0.000000e+000
      endloop
   endfacet
endsolid